<?xml version="1.0" encoding="UTF-8"?><svg id="Arrows" xmlns="http://www.w3.org/2000/svg" viewBox="0 0 30.98 19.33"><defs><style>.cls-1{fill:#bbbaba;}</style></defs><path class="cls-1" d="m27.94,4.05c-.47-.55-.93-1.11-1.3-1.67l-.03-.08-.07-.6c-.06-.56-.33-1.09-.74-1.47,0,0-.27-.38-.83-.18-.13.05-.27.13-.39.21-.13.08-.27.24-.38.38-.1.15-.17.32-.22.49-.04.15-.04.29-.05.43,0,.23.05.45.1.59.1.32.22.53.34.75l.19.29.19.27c.51.68,1.05,1.26,1.6,1.83.51.52,1.03,1.02,1.56,1.51-.65,0-1.37.01-2.15.07-3.38.23-14.29.39-18.24,2.67s-3.52,2.06-4.75,3.36c-1.24,1.29-2.02,2.69-2.38,3.76-.18.54-.28.97-.32,1.28-.02.15-.04.27-.05.35,0,.09,0,.13,0,.13,0,.16.14.39.38.52.23.14.53.26.77.32.48.11,1.17.07,1.17-.18,0,0,0-.03,0-.1,0-.03,0-.08,0-.12,0-.04,0-.08,0-.12,0-.17.03-.5.11-.89.16-.78.63-1.92,1.6-3.1.96-1.19,2.21-2.3,4.07-3.5,4.12-2.66,14.19-2.63,17.44-3,.72-.08,1.39-.13,2-.16-.66.31-1.3.65-1.92,1.01-1.39.8-2.72,1.69-3.99,2.67-.11.08-.16.22.08.64.24.42.37.43.47.36,1.29-.87,2.67-1.66,4.06-2.35,1.4-.68,2.61-1.29,4.07-1.65l.37-.19.27-.3s.22-.78-.49-1.63c-.83-1-2.04-2.03-2.51-2.58Z"/></svg>