<?xml version="1.0" encoding="UTF-8"?><svg id="Ebene_1" xmlns="http://www.w3.org/2000/svg" viewBox="0 0 113.51 102.49"><defs><style>.cls-1{fill:#efefef;}</style></defs><path class="cls-1" d="m1.58,101.72c-.21,0-.39.17-.39.38s.17.39.39.39h109.13c.21,0,.38-.17.38-.39s-.17-.38-.38-.38h-10.72l-.15-68.97,5.01,3.05,8.27.15c.16,0,.31-.11.37-.27.05-.14,0-.3-.1-.39l-.04-.02L57,.07c-.14-.1-.31-.1-.45,0L.14,35.26c-.12.09-.18.26-.13.41.05.17.2.28.37.28l8.29-.15,3.58-2.19.1,68.1H1.58Zm97.64,0H13.12V33.02L56.78,6.47l42.34,25.77.1,69.48Zm13.2-66.38l-7.53-.19L57.02,5.68c-.15-.11-.33-.11-.46-.02L8.48,35.18l-7.59.24L56.78.87l.28.19,55.36,34.28Z"/></svg>