<?xml version="1.0" encoding="UTF-8"?><svg id="Arrows" xmlns="http://www.w3.org/2000/svg" viewBox="0 0 31.97 7.47"><defs><style>.cls-1{fill:#245fa5;}</style></defs><path d="m24.85.51s-.01,0-.02,0c0,0,.01.01.02.02,0,0,0-.01,0-.02Z"/><path d="m27.61.1s-.04-.06-.06-.08c-.03.01,0,.07-.04.08.03,0,.05-.02.09,0Z"/><path d="m24.92.56s.03,0,.04-.02c-.03-.02-.04,0-.04.02Z"/><polygon points="27.51 .1 27.51 .1 27.51 .1 27.51 .1"/><path d="m24.89.62s.03-.03.03-.06c-.01,0-.03,0-.04-.02,0,0-.01,0-.02-.01.01.04,0,.08.03.1Z"/><polygon points="27.64 0 27.63 .01 27.64 .04 27.65 .01 27.64 0"/><path class="cls-1" d="m31.02,6.82c-.11.05-.23.08-.35.09-.29.04-.59.08-.89.11-.25.03-.5.06-.75.1-.26.03-.52.05-.78.07-.52.05-1.05.1-1.59.14-1.07.05-15.14.14-16.15.12-.51,0-5.99.02-6.46,0-.47-.02-.92-.04-1.33-.05-.21,0-.4-.02-.59-.03-.19,0-.35-.03-.51-.05-.32-.03-.6-.06-.83-.08-.46-.04-.72-.07-.72-.07-.12-.02-.04-.7.08-1.17.12-.47.39-1.13.51-1.11,0,0,.26.04.71.12.22.04.5.09.81.14.31.05.65.08,1.02.12.37.04.78.09,1.21.14.44.03,5.9.05,6.38.09.24.01.48.03.73.05.25,0,.5,0,.75.01.51,0,14.02.02,14.54.02,1.03-.02,2.06-.03,3.03-.09.48-.03.95-.05,1.4-.08.42-.04.39.17.75.14l-.05.89-.91.37Z"/></svg>