<?xml version="1.0" encoding="utf-8"?>
<!-- Generator: Adobe Illustrator 27.2.0, SVG Export Plug-In . SVG Version: 6.00 Build 0)  -->
<svg version="1.1" id="Layer_1" xmlns="http://www.w3.org/2000/svg" xmlns:xlink="http://www.w3.org/1999/xlink" x="0px" y="0px"
	 viewBox="0 0 100 100" style="enable-background:new 0 0 100 100;" xml:space="preserve">
<style type="text/css">
	.st0{fill:none;stroke:#015faa;stroke-width:2;stroke-linecap:round;stroke-linejoin:round;stroke-miterlimit:10;}
</style>
<path class="st0" d="M40,75c0,8.3-6.7,15-15,15s-15-6.7-15-15s6.7-15,15-15S40,66.7,40,75z"/>
<path class="st0" d="M80,50c0,8.3-6.7,15-15,15s-15-6.7-15-15s6.7-15,15-15S80,41.7,80,50z"/>
<path class="st0" d="M75,20c-0.3,0-0.6,0-0.9,0c0.5,1.6,0.9,3.2,0.9,5c0,4.3-1.8,8.2-4.8,11c5.4,2,9.4,7.1,9.7,13.2
	c5.8-2,10-7.6,10-14.1C90,26.7,83.3,20,75,20z"/>
<path class="st0" d="M21.9,52.9c1.7-10.6,7.5-19.5,15.6-25.4C29.4,33.3,23.6,42.3,21.9,52.9z"/>
<polygon class="st0" points="37.5,37.5 37.5,27.5 27.5,27.5 37.5,27.5 "/>
<path class="st0" d="M65,35c1.8,0,3.6,0.3,5.2,1c2.9-2.7,4.8-6.6,4.8-11c0-8.3-6.7-15-15-15s-15,6.7-15,15c0,6.4,4.1,11.9,9.8,14
	C57.5,36.5,61,35,65,35z"/>
</svg>
