<?xml version="1.0" encoding="utf-8"?>
<!-- Generator: Adobe Illustrator 27.2.0, SVG Export Plug-In . SVG Version: 6.00 Build 0)  -->
<svg version="1.1" id="Layer_1" xmlns="http://www.w3.org/2000/svg" xmlns:xlink="http://www.w3.org/1999/xlink" x="0px" y="0px"
	 viewBox="0 0 100 100" style="enable-background:new 0 0 100 100;" xml:space="preserve">
<style type="text/css">
	.st0{fill:none;stroke:#015FAA;stroke-width:2;stroke-linecap:round;stroke-linejoin:round;stroke-miterlimit:10;}
	.st1{fill:none;stroke:#015FAA;stroke-width:2.0002;stroke-linecap:round;stroke-linejoin:round;stroke-miterlimit:10.0006;}
</style>
<path class="st0" d="M50,90c-3.5,0-6.9-0.3-10-0.9v-10c3.1,0.6,6.5,0.9,10,0.9V90z"/>
<path class="st0" d="M40,79.1c-3.7-0.7-7.1-1.7-10-3v10c2.9,1.3,6.3,2.3,10,3V79.1z"/>
<path class="st0" d="M40,70c-3.5,0-6.9-0.3-10-0.9v-10c3.1,0.6,6.5,0.9,10,0.9V70z"/>
<path class="st0" d="M30,59.1c-3.7-0.7-7.1-1.7-10-3v10c2.9,1.3,6.3,2.3,10,3V59.1z"/>
<path class="st0" d="M20,56.2c-6.1-2.7-10-6.7-10-11.2v10c0,4.4,3.9,8.4,10,11.2V56.2z"/>
<path class="st0" d="M20.1,66.2c0,0-0.1,0-0.1-0.1V75c0,4.4,3.9,8.4,10,11.2v-10C24.4,73.7,20.8,70.2,20.1,66.2z"/>
<path class="st0" d="M40,39.1c-3.7-0.7-7.1-1.7-10-3v10c2.9,1.3,6.3,2.3,10,3V39.1z"/>
<path class="st0" d="M30,36.2c-6.1-2.7-10-6.7-10-11.2v10c0,4.4,3.9,8.4,10,11.2V36.2z"/>
<ellipse transform="matrix(0.9239 -0.3827 0.3827 0.9239 -16.7507 32.0176)" class="st1" cx="72.1" cy="58.1" rx="14.9" ry="29.8"/>
<path class="st0" d="M49.2,67.6c1.3,3.2,2.9,6.2,4.6,8.8l9.2-3.8c-1.7-2.7-3.3-5.6-4.6-8.8L49.2,67.6z"/>
<path class="st0" d="M60.3,84.5c-2.3-2.2-4.5-4.9-6.5-8l9.2-3.8c2,3.2,4.2,5.9,6.5,8L60.3,84.5z"/>
<path class="st0" d="M49.2,67.6c-1.3-3.2-2.3-6.4-3-9.5l9.2-3.8c0.7,3.1,1.7,6.3,3,9.5L49.2,67.6z"/>
<path class="st0" d="M60.3,84.5c4.8,4.6,10,6.6,14,4.9l9.2-3.8c-4.1,1.7-9.2-0.4-14-4.9L60.3,84.5z"/>
<path class="st0" d="M55.4,54.3c-0.8-3.7-1.2-7.2-1.1-10.3l-9.2,3.8c-0.1,3.1,0.3,6.6,1.1,10.3L55.4,54.3z"/>
<path class="st0" d="M54.3,44c0.2-6.7,2.4-11.7,6.4-13.4l-9.2,3.8c-4.1,1.7-6.2,6.7-6.4,13.4L54.3,44z"/>
<path class="st0" d="M56,79.7c-2,0.2-4,0.3-6,0.3v10c3.5,0,6.9-0.3,10-0.9v-5C58.6,82.9,57.3,81.4,56,79.7z"/>
<path class="st0" d="M60,84.2v5c1.7-0.3,3.3-0.7,4.9-1.1C63.3,87,61.6,85.7,60,84.2z"/>
<path class="st0" d="M49.9,69.1C46.8,69.7,43.5,70,40,70c-7.6,0-14.6-1.4-19.9-3.8C21.4,73.9,34.3,80,50,80c2.1,0,4.1-0.1,6.1-0.3
	C53.8,76.7,51.7,73.1,49.9,69.1z"/>
<path class="st0" d="M49.2,67.6c-1.1-2.7-2-5.4-2.6-8C44.5,59.9,42.3,60,40,60v10c3.5,0,6.8-0.3,9.9-0.9
	C49.7,68.6,49.4,68.1,49.2,67.6z"/>
<path class="st0" d="M45.1,49.8C30.9,48.6,20,42.5,20,35v-1.2c-6.1,2.7-10,6.7-10,11.2c0,8.3,13.4,15,30,15c2.3,0,4.5-0.1,6.6-0.4
	C45.7,56.2,45.2,52.8,45.1,49.8z"/>
<path class="st0" d="M51.6,34.4l9.2-3.8c3.7-1.5,8.3,0,12.7,3.8c4.1-2.6,6.5-5.8,6.5-9.3c0-8.3-13.4-15-30-15s-30,6.7-30,15
	c0,7.7,11.6,14.1,26.6,14.9C47.7,37.3,49.3,35.3,51.6,34.4z"/>
<path class="st0" d="M46.6,39.9c-2.3-0.1-4.5-0.4-6.6-0.8v10c1.7,0.3,3.4,0.5,5.1,0.7C45,46,45.5,42.6,46.6,39.9z"/>
<path class="st0" d="M78.5,39.6c1-1.5,1.5-3,1.5-4.6V25c0,3.5-2.5,6.8-6.6,9.3C75.2,35.8,76.9,37.6,78.5,39.6z"/>
</svg>
