<?xml version="1.0" encoding="utf-8"?>
<!-- Generator: Adobe Illustrator 27.2.0, SVG Export Plug-In . SVG Version: 6.00 Build 0)  -->
<svg version="1.1" id="Layer_1" xmlns="http://www.w3.org/2000/svg" xmlns:xlink="http://www.w3.org/1999/xlink" x="0px" y="0px"
	 viewBox="0 0 100 100" style="enable-background:new 0 0 100 100;" xml:space="preserve">
<style type="text/css">
	.st0{fill:none;stroke:#015FAA;stroke-width:2;stroke-linecap:round;stroke-linejoin:round;stroke-miterlimit:10;}
</style>
<path class="st0" d="M30,75c0,2.8,4.5,5,10,5s10-2.2,10-5v-5c0,2.8-4.5,5-10,5s-10-2.2-10-5V75z"/>
<path class="st0" d="M55,60c0,2.8-4.5,5-10,5s-10-2.2-10-5s4.5-5,10-5S55,57.2,55,60z"/>
<path class="st0" d="M35,65c0,2.8,4.5,5,10,5s10-2.2,10-5v-5c0,2.8-4.5,5-10,5s-10-2.2-10-5V65L35,65z"/>
<path class="st0" d="M45,70c-5.1,0-9.3-1.9-9.9-4.4c-3,0.9-5.1,2.5-5.1,4.4c0,2.8,4.5,5,10,5s10-2.2,10-5c0-0.2,0-0.4-0.1-0.6
	C48.5,69.8,46.8,70,45,70z"/>
<path class="st0" d="M20,40c0-8.3,6.7-15,15-15l2.5-7.5h25L65,25c8.3,0,15,6.7,15,15v35c0,8.3-6.7,15-15,15H35c-8.3,0-15-6.7-15-15
	V40z"/>
<path class="st0" d="M60,70c-3,0-5.7-0.7-7.5-1.7c-0.7,0.4-1.6,0.8-2.5,1V70c0,2.8,4.5,5,10,5s10-2.2,10-5v-5C70,67.8,65.5,70,60,70
	z"/>
<path class="st0" d="M60,60c-1.8,0-3.5,0.2-5,0.7V65c0,1.3-1,2.4-2.5,3.3c1.8,1,4.5,1.7,7.5,1.7c5.5,0,10-2.2,10-5
	C70,62.2,65.5,60,60,60z"/>
<path class="st0" d="M67.5,10c1.4,0,2.5,1.1,2.5,2.5v5H30v-5c0-1.4,1.1-2.5,2.5-2.5H67.5z"/>
</svg>
